<svg width="42" height="42" viewBox="0 0 42 42" fill="none" xmlns="http://www.w3.org/2000/svg">
<path d="M29.75 38.5H12.25C7.41751 38.5 3.5 34.5825 3.5 29.75V12.25C3.5 7.41751 7.41751 3.5 12.25 3.5H29.75C34.5825 3.5 38.5 7.41751 38.5 12.25V29.75C38.5 34.5825 34.5825 38.5 29.75 38.5Z" fill="white"/>
<path d="M29.7885 1.75H12.2115C6.44287 1.75 1.75 6.44287 1.75 12.2115V29.7885C1.75 35.5571 6.44287 40.25 12.2115 40.25H29.7885C35.5571 40.25 40.25 35.5571 40.25 29.7885V12.2115C40.25 6.44287 35.5571 1.75 29.7885 1.75ZM36.75 29.7885C36.75 33.6268 33.6268 36.75 29.7885 36.75H12.2115C8.37317 36.75 5.25 33.6268 5.25 29.7885V12.2115C5.25 8.37317 8.37317 5.25 12.2115 5.25H29.7885C33.6268 5.25 36.75 8.37317 36.75 12.2115V29.7885ZM21 10.5C15.21 10.5 10.5 15.21 10.5 21C10.5 26.79 15.21 31.5 21 31.5C26.79 31.5 31.5 26.79 31.5 21C31.5 15.21 26.79 10.5 21 10.5ZM21 28C17.1403 28 14 24.8597 14 21C14 17.1403 17.1403 14 21 14C24.8597 14 28 17.1403 28 21C28 24.8597 24.8597 28 21 28ZM31.5 8.75C30.5353 8.75 29.75 9.53528 29.75 10.5C29.75 11.4647 30.5353 12.25 31.5 12.25C32.4647 12.25 33.25 11.4647 33.25 10.5C33.25 9.53528 32.4647 8.75 31.5 8.75Z" fill="url(#paint0_radial_19_41)"/>
<path d="M29.7885 1.75H12.2115C6.44287 1.75 1.75 6.44287 1.75 12.2115V29.7885C1.75 35.5571 6.44287 40.25 12.2115 40.25H29.7885C35.5571 40.25 40.25 35.5571 40.25 29.7885V12.2115C40.25 6.44287 35.5571 1.75 29.7885 1.75Z" fill="url(#paint1_linear_19_41)"/>
<defs>
<radialGradient id="paint0_radial_19_41" cx="0" cy="0" r="1" gradientUnits="userSpaceOnUse" gradientTransform="translate(4.30208 38.8646) scale(46.9267)">
<stop stop-color="#FFD35A"/>
<stop offset="0.254854" stop-color="#F7964C"/>
<stop offset="0.599514" stop-color="#F05B70"/>
<stop offset="0.717456" stop-color="#BD6186"/>
<stop offset="0.853229" stop-color="#85659B"/>
<stop offset="0.950948" stop-color="#5C66A9"/>
<stop offset="1" stop-color="#4766B0"/>
</radialGradient>
<linearGradient id="paint1_linear_19_41" x1="0.934119" y1="11.6431" x2="41.0659" y2="30.3569" gradientUnits="userSpaceOnUse">
<stop stop-color="white" stop-opacity="0.2"/>
<stop offset="1" stop-color="white" stop-opacity="0"/>
</linearGradient>
</defs>
</svg>
