<svg width="338" height="194" viewBox="0 0 338 194" fill="none" xmlns="http://www.w3.org/2000/svg">
<path d="M107.879 140.591H101.839C99.1591 151.311 92.0391 151.271 92.0391 151.271C92.0391 151.271 95.0791 148.871 96.5191 140.591H88.0791V138.991H96.7591C96.9191 137.751 97.0391 136.391 97.1591 134.871C92.4791 136.231 90.6391 133.631 90.6391 133.631C90.6391 133.631 95.8391 132.511 101.119 126.231L105.079 130.231C104.279 130.871 103.559 131.431 102.839 131.951C102.799 134.671 102.559 136.991 102.199 138.991H104.679L106.279 137.431L107.879 138.991V140.591ZM138.311 132.591C138.311 132.591 138.311 139.183 138.119 146.895C141.511 146.383 144.423 143.759 144.423 143.759C144.423 143.759 144.167 150.383 138.023 151.407H134.407C133.959 142.767 133.831 132.591 133.831 132.591H138.311ZM124.775 151.407C124.775 151.407 127.335 148.271 127.335 137.231H131.815C131.815 151.407 124.775 151.407 124.775 151.407ZM168.719 135.471C166.839 151.271 159.759 151.271 159.759 151.271C159.759 151.271 162.359 147.431 163.279 135.631C161.519 135.671 160.639 135.671 160.639 135.671V131.591H163.519C163.559 130.191 163.599 128.671 163.599 127.031H169.199C169.199 128.671 169.159 130.231 169.079 131.671C171.999 131.711 175.719 131.751 180.159 131.871C180.159 151.271 174.159 151.311 174.159 151.311C174.159 151.311 174.479 143.471 174.519 135.311C172.359 135.351 170.439 135.431 168.719 135.471ZM200.291 130.387C200.291 130.387 204.143 130.387 215.627 130.639C215.627 150.763 202.379 151.339 202.379 151.339C202.379 151.339 209.471 147.163 210.443 133.735C202.991 134.023 200.291 134.095 200.291 134.095V130.387ZM243.847 139.663C243.847 140.975 243.815 143.727 243.719 147.023C245.191 147.055 246.855 147.087 248.647 147.151V150.191C241.383 150.575 235.271 150.671 235.271 150.671V146.895C235.271 146.895 237.159 146.895 240.327 146.959C240.167 143.695 240.103 140.847 240.103 139.535C238.887 139.503 237.543 139.439 236.103 139.407V137.199C244.487 137.007 247.847 137.007 247.847 137.007V139.759L243.847 139.663Z" fill="black"/>
<path d="M78.4 171.64H85.86V173.86H78.4V171.64ZM67.56 167H76.56V168.96H67.56V167ZM67.36 174.96H76.54V176.98H67.36V174.96ZM67.3 171.46H76.72V173.44H67.3V171.46ZM81.64 172.6H83.96V183.7H81.64V172.6ZM70.9 165.18H73.24V167.88H70.9V165.18ZM70.9 173.32H73.24V183.78H70.9V173.32ZM77.32 166.6L80.12 167.38C80.1 167.58 79.96 167.68 79.6 167.74V173.62C79.6 176.6 79.22 181.02 76.5 183.84C76.2 183.32 75.32 182.5 74.78 182.2C77.1 179.74 77.32 176.32 77.32 173.58V166.6ZM83.86 165.22L85.78 166.96C83.74 167.88 81.02 168.56 78.68 169C78.56 168.48 78.22 167.64 77.94 167.18C80.08 166.7 82.44 165.98 83.86 165.22ZM73.06 177.06C73.68 177.44 75.6 178.94 76.08 179.34L74.7 181.06C74.04 180.26 72.52 178.76 71.78 178.1L73.06 177.06ZM68.56 169.26L70.4 168.82C70.76 169.54 71.04 170.52 71.14 171.18L69.18 171.7C69.14 171.04 68.88 170.02 68.56 169.26ZM73.54 168.78L75.66 169.18C75.28 170.1 74.94 170.96 74.64 171.58L72.74 171.18C73.02 170.5 73.36 169.48 73.54 168.78ZM70.92 176.14L72.62 176.76C71.64 178.96 69.98 181.26 68.38 182.56C68 182.04 67.3 181.24 66.8 180.86C68.38 179.84 70.04 177.9 70.92 176.14ZM98.24 165.04H100.7V167.86H98.24V165.04ZM90.92 166.58H108.1V170.14H105.64V168.74H93.28V170.44H90.92V166.58ZM96.66 170.54H108.24V172.64H96.66V170.54ZM98.46 177.58H106.24V179.52H98.46V177.58ZM98.46 181.12H106.24V183.16H98.46V181.12ZM97.36 174.12H107.5V183.82H105.14V176.16H99.64V183.84H97.36V174.12ZM101.1 171.58L103.78 172.18C103.3 173.5 102.82 174.86 102.44 175.78L100.32 175.2C100.62 174.2 100.96 172.7 101.1 171.58ZM94.62 169.26L96.84 170C95.52 172.84 93.38 175.7 91.2 177.46C90.94 176.94 90.24 175.74 89.82 175.2C91.72 173.82 93.56 171.58 94.62 169.26ZM92.86 173.42L94.96 171.3L95.12 171.38V183.8H92.86V173.42ZM124.32 168.3C124.04 170.34 123.64 172.68 122.94 175.04C121.74 179.08 120.02 181.56 117.84 181.56C115.6 181.56 113.76 179.1 113.76 175.72C113.76 171.12 117.78 167.16 122.96 167.16C127.9 167.16 131.04 170.6 131.04 174.98C131.04 179.18 128.46 182.16 123.42 182.94L121.9 180.58C122.68 180.48 123.24 180.38 123.78 180.26C126.32 179.64 128.32 177.82 128.32 174.88C128.32 171.74 126.36 169.5 122.9 169.5C118.66 169.5 116.34 172.96 116.34 175.48C116.34 177.5 117.14 178.48 117.9 178.48C118.76 178.48 119.52 177.2 120.36 174.5C120.94 172.62 121.38 170.32 121.58 168.22L124.32 168.3ZM144.24 165.3H146.88V180.8C146.88 182.28 146.54 182.94 145.62 183.32C144.7 183.72 143.32 183.8 141.36 183.78C141.24 183.08 140.78 181.94 140.4 181.28C141.72 181.36 143.22 181.34 143.64 181.32C144.08 181.32 144.24 181.18 144.24 180.78V165.3ZM149.06 170.56L151.4 169.68C153.04 172.5 154.7 176.16 155.2 178.66L152.58 179.7C152.16 177.28 150.64 173.5 149.06 170.56ZM139 169.88L141.74 170.34C141.06 173.36 139.96 177.1 138.28 179.32C137.7 178.88 136.6 178.32 135.94 178.06C137.56 176.02 138.58 172.5 139 169.88ZM168.62 167.82C168.48 167.36 168.24 166.64 168 165.98L170.7 165.66C171 167.2 171.48 168.78 171.96 170.06C172.58 171.74 173.52 173.46 174.18 174.38C174.52 174.88 174.88 175.3 175.24 175.72L174.02 177.5C172.9 177.28 170.36 177.02 168.68 176.88L168.88 174.76C169.86 174.86 171.18 174.96 171.8 175.02C171.08 173.84 170.2 172.16 169.58 170.5C169.14 169.4 168.86 168.48 168.62 167.82ZM161.34 168.76C165.08 169.2 168.12 169.18 170.52 168.92C172.3 168.7 174.06 168.36 175.64 167.88L175.94 170.38C174.62 170.76 172.9 171.06 171.3 171.24C168.64 171.56 165.48 171.64 161.38 171.3L161.34 168.76ZM165.36 175.56C164.7 176.52 164.38 177.4 164.38 178.26C164.38 179.96 165.88 180.66 168.62 180.68C170.8 180.68 172.56 180.46 173.96 180.18L173.82 182.72C172.68 182.92 170.88 183.18 168.46 183.18C164.36 183.18 161.8 181.6 161.8 178.7C161.8 177.48 162.18 176.34 162.86 174.98L165.36 175.56ZM183.14 168.9C184 169 185.08 169.04 185.8 169.04C188.28 169.04 190.98 168.62 192.92 168L192.98 170.32C191.26 170.8 188.38 171.32 185.82 171.3C185.02 171.3 184.18 171.28 183.32 171.24L183.14 168.9ZM190.92 165.9C190.66 166.96 190.18 168.92 189.64 170.62C188.72 173.5 186.92 177.22 185.22 179.58L182.8 178.34C184.6 176.14 186.4 172.64 187.18 170.48C187.66 169.04 188.1 167.18 188.16 165.64L190.92 165.9ZM195.62 172.14C195.56 172.98 195.58 173.82 195.6 174.7C195.64 175.88 195.82 178.86 195.82 179.98C195.82 181.84 194.82 183.3 191.96 183.3C189.48 183.3 187.52 182.18 187.52 179.98C187.52 178.04 189.16 176.52 191.94 176.52C195.44 176.52 198.2 178.28 199.86 179.78L198.54 181.94C197.1 180.6 194.82 178.54 191.8 178.54C190.64 178.54 189.88 179.04 189.88 179.74C189.88 180.48 190.52 181 191.62 181C192.98 181 193.42 180.24 193.42 179.12C193.42 177.92 193.2 174.24 193.1 172.14H195.62ZM199.06 173.2C197.9 172.26 195.62 170.96 194.24 170.34L195.54 168.38C196.98 169 199.44 170.34 200.48 171.08L199.06 173.2ZM215.14 165.96C215.08 166.44 215.02 167.28 215 167.76C214.78 175.7 212.9 179.76 208.48 182.9L206.14 181.02C206.98 180.56 207.98 179.9 208.78 179.08C211.4 176.48 212.32 173.08 212.34 167.8C212.34 167.36 212.26 166.44 212.18 165.96H215.14ZM221.92 170.26C221.86 170.58 221.8 171.08 221.8 171.3C221.72 173.48 221.46 179.06 220.6 181.1C220.18 182.1 219.4 182.64 218.04 182.64C216.88 182.64 215.7 182.54 214.72 182.46L214.4 179.8C215.4 179.96 216.42 180.08 217.22 180.08C217.86 180.08 218.14 179.86 218.34 179.36C218.92 178.1 219.2 174.1 219.2 171.94H209.44C208.76 171.94 207.64 171.96 206.8 172.04V169.4C207.64 169.5 208.66 169.54 209.42 169.54H218.68C219.2 169.54 219.72 169.5 220.2 169.4L221.92 170.26ZM245.28 168.7C245.08 169.08 244.94 169.66 244.84 170.08C244.38 172.04 243.5 175.14 241.82 177.38C240.02 179.76 237.36 181.76 233.78 182.9L231.6 180.5C235.58 179.58 237.82 177.84 239.44 175.82C240.78 174.14 241.52 171.88 241.8 170.16C240.58 170.16 233.98 170.16 232.48 170.16C231.56 170.16 230.62 170.22 230.1 170.24V167.42C230.7 167.5 231.82 167.58 232.48 167.58C233.98 167.58 240.62 167.58 241.74 167.58C242.12 167.58 242.76 167.56 243.3 167.44L245.28 168.7ZM254.42 171.18C254.86 171.24 255.58 171.28 256.02 171.28H265.16C265.66 171.28 266.24 171.24 266.72 171.18V173.68C266.22 173.64 265.62 173.62 265.16 173.62H256.02C255.58 173.62 254.86 173.64 254.42 173.68V171.18ZM259.12 181.4V172.54H261.74V181.4H259.12ZM253.42 179.92C253.92 180 254.54 180.04 255.06 180.04H266.1C266.66 180.04 267.2 179.98 267.62 179.92V182.54C267.2 182.48 266.46 182.46 266.1 182.46H255.06C254.56 182.46 253.94 182.48 253.42 182.54V179.92Z" fill="black"/>
<path d="M22.4687 100.249C21.8499 96.6543 21.9782 93.0605 22.8535 89.468C23.7811 85.8015 25.2207 82.469 27.1724 79.4705C29.1763 76.3981 31.5878 73.8075 34.407 71.6988C37.2784 69.5161 40.3855 68.1371 43.7283 67.5618C47.0081 66.9973 49.6721 67.383 51.7204 68.7189C53.7687 70.0549 55.0534 72.2366 55.5744 75.2641C55.8241 76.7147 55.8476 78.1719 55.6449 79.6354C55.4945 81.0251 55.1646 82.3158 54.6553 83.5074C54.2092 84.6882 53.6043 85.7015 52.8407 86.5473C52.0662 87.33 51.2375 87.7973 50.3544 87.9493C49.5976 88.0795 48.7712 87.9945 47.8752 87.6941C47.0315 87.3198 46.2922 86.7976 45.6574 86.1276C49.2211 81.5528 50.7315 77.6886 50.1887 74.535C49.8739 72.7059 48.9912 71.9162 47.5405 72.1659C46.2791 72.383 44.8054 73.2536 43.1194 74.7776C41.4335 76.3017 39.8758 78.1933 38.4463 80.4525C36.2552 83.9468 34.7546 87.6794 33.9444 91.6504C33.1865 95.5474 33.1549 99.5142 33.8496 103.551C34.7289 108.66 36.3907 111.523 38.835 112.142C39.7594 111.853 40.8143 111.379 41.9998 110.72C43.1853 110.062 44.4436 109.261 45.7749 108.317C47.0953 107.311 48.4309 106.204 49.7818 104.997C51.1958 103.78 52.5359 102.51 53.802 101.188C54.0869 101.334 54.3565 101.58 54.6108 101.926C54.8652 102.272 55.0195 102.602 55.0738 102.918C54.2295 104.427 53.2221 105.931 52.0516 107.432C50.8811 108.932 49.6313 110.349 48.3021 111.681C46.9621 112.951 45.6264 114.058 44.2951 115.001C43.0378 115.997 41.8893 116.681 40.8496 117.055C38.7357 117.224 36.6664 116.899 34.6419 116.078C32.6283 115.321 30.7757 114.178 29.0841 112.651C27.4556 111.113 26.036 109.279 24.8253 107.15C23.6776 105.009 22.8921 102.709 22.4687 100.249Z" fill="black"/>
<path d="M61.2597 109.061C60.8797 106.854 60.6554 104.23 60.5867 101.189C60.5072 98.0857 60.5842 94.7605 60.818 91.2134C61.1148 87.6555 61.5106 83.9182 62.0054 80.0015C62.5633 76.074 63.2474 72.1247 64.0576 68.1538C64.7437 64.5938 65.6136 60.9697 66.6673 57.2816C67.784 53.5825 69.0378 49.9249 70.4285 46.3086C71.8193 42.6923 73.3003 39.2228 74.8714 35.9002C76.5057 32.5667 78.1834 29.4854 79.9045 26.6565C80.9136 26.4828 82.0076 26.4244 83.1863 26.4813C84.4281 26.5274 85.6231 26.6789 86.7713 26.9358C87.9718 27.1188 89.0624 27.4182 90.0431 27.8339C91.0869 28.2387 91.9414 28.6761 92.6068 29.146C88.7122 34.8168 85.3016 40.4692 82.3748 46.1033C79.4372 51.6743 77.2391 56.8258 75.7806 61.5577C74.9948 64.1607 74.2764 66.5898 73.6254 68.8449C73.0376 71.0891 72.5128 73.3225 72.0511 75.545C71.5785 77.7045 71.1745 79.8846 70.8389 82.0854C70.5556 84.2123 70.3255 86.4599 70.1486 88.8282C79.5989 71.2911 87.257 62.0178 93.1227 61.0082C94.7626 60.726 96.6209 60.9581 98.6976 61.7047C100.774 62.4513 102.695 63.6143 104.461 65.1937C102.875 67.6747 101.302 70.608 99.7412 73.9938C98.1809 77.3795 96.7837 80.7696 95.5496 84.1641C94.3677 87.4847 93.437 90.5672 92.7577 93.4117C92.1305 96.1822 91.9255 98.1982 92.1426 99.4596C92.2512 100.09 92.4218 100.516 92.6544 100.735C92.8762 100.892 93.3024 100.916 93.9332 100.807C94.8793 100.645 95.6144 100.388 96.1387 100.038C96.6629 99.6882 96.9881 99.5024 97.1142 99.4807C97.5164 99.931 97.7653 100.245 97.861 100.424C97.9566 100.602 98.0153 100.754 98.037 100.88C98.0804 101.133 97.7671 101.576 97.0971 102.211C96.4162 102.783 95.5831 103.413 94.5977 104.102C93.6645 104.718 92.7259 105.301 91.7819 105.853C90.8379 106.406 90.1136 106.725 89.609 106.812C88.9783 106.92 88.315 106.84 87.6191 106.57C86.9341 106.363 86.2905 106.019 85.6882 105.539C85.149 105.047 84.662 104.481 84.2272 103.842C83.8555 103.191 83.6045 102.488 83.4742 101.731C83.3114 100.785 83.3249 99.3538 83.5146 97.4378C83.7566 95.4479 84.139 93.1417 84.6617 90.519C85.1736 87.8333 85.8367 84.8942 86.651 81.7018C87.4653 78.5094 88.3633 75.2377 89.3452 71.8866C89.3017 71.6343 89.1539 71.5299 88.9016 71.5733C88.7124 71.6059 88.2512 71.945 87.5181 72.5907C86.8481 73.2256 86.2096 73.855 85.6026 74.479C83.6251 76.5727 81.6866 79.0819 79.7872 82.0065C77.9399 84.8571 76.1676 87.9546 74.4703 91.2989C72.8361 94.6325 71.329 98.1389 69.9491 101.818C68.6214 105.424 67.5514 109.017 66.7392 112.599C66.626 113.073 66.4127 113.532 66.0994 113.975C65.7861 114.419 65.5033 114.662 65.251 114.706C65.0618 114.738 64.74 114.567 64.2855 114.19C63.8942 113.803 63.4811 113.29 63.0463 112.65C62.6855 112.063 62.3192 111.444 61.9475 110.794C61.5758 110.143 61.3465 109.566 61.2597 109.061Z" fill="black"/>
<path d="M104.174 98.016C104.139 97.4411 104.128 96.7365 104.142 95.9021C104.215 95 104.337 93.8385 104.507 92.4175C104.673 90.9327 104.886 89.1565 105.145 87.089C105.468 85.0176 105.862 82.5252 106.326 79.6117C106.415 78.9651 106.64 77.9255 107.002 76.4929C107.364 75.0603 107.849 73.5561 108.459 71.9802C109.129 70.3366 109.93 68.7491 110.863 67.2177C111.859 65.6824 113.071 64.5188 114.498 63.7268C115.599 63.9164 117.077 64.4998 118.932 65.4771C120.783 66.3906 122.403 67.7348 123.793 69.5097C122.425 71.2599 121.28 72.9966 120.359 74.7196C119.502 76.4388 118.712 78.2179 117.99 80.0571C117.332 81.8923 116.71 83.7896 116.124 85.7487C115.602 87.704 114.989 89.7609 114.287 91.9195C113.693 93.7509 113.167 95.6423 112.708 97.5937C112.246 99.4812 112.025 101.13 112.047 102.539C112.117 103.689 112.133 104.489 112.097 104.94C112.128 105.451 111.983 105.717 111.664 105.736C111.409 105.752 110.888 105.623 110.102 105.35C109.316 105.077 108.488 104.647 107.619 104.058C106.81 103.402 106.054 102.582 105.354 101.599C104.653 100.616 104.259 99.4214 104.174 98.016ZM119.95 55.3167C119.926 54.9334 119.987 54.3527 120.132 53.5744C119.793 53.2744 119.477 52.8128 119.182 52.1895C118.952 51.5623 118.821 50.9932 118.79 50.4821C118.755 49.9072 118.773 49.1367 118.842 48.1707C118.972 47.137 119.129 46.0374 119.315 44.872C119.501 43.7066 119.748 42.5053 120.058 41.2683C120.363 39.9674 120.677 38.7942 120.998 37.7488C121.765 37.7022 122.705 37.8695 123.818 38.2507C124.991 38.5641 126.174 39.0373 127.366 39.6701C128.555 40.2391 129.654 40.9097 130.662 41.6819C131.667 42.3903 132.446 43.0803 133 43.7519C132.34 44.4973 131.474 45.5438 130.402 46.8913C129.326 48.1749 128.287 49.5524 127.287 51.0238C126.282 52.4313 125.37 53.7692 124.549 55.0373C123.728 56.3054 123.206 57.2027 122.981 57.7293C122.207 57.6481 121.517 57.3694 120.911 56.8933C120.301 56.3533 119.981 55.8278 119.95 55.3167Z" fill="black"/>
<path d="M125.088 97.0337C124.917 94.2228 125.349 90.2533 126.384 85.1251C127.415 79.933 128.939 73.8775 130.955 66.9585C134.26 55.9218 137.419 46.7212 140.434 39.3568C143.509 31.9246 146.585 26.0953 149.663 21.8689C150.437 21.9501 151.383 22.2132 152.5 22.6583C153.681 23.0995 154.834 23.6065 155.958 24.1794C157.079 24.6883 158.075 25.237 158.944 25.8253C159.877 26.4098 160.483 26.886 160.762 27.2537C156.136 33.4336 152.144 40.0238 148.787 47.0244C145.429 54.0249 142.451 61.9962 139.853 70.9382C137.628 78.6393 135.997 85.567 134.96 91.7212C133.919 97.8115 133.521 102.869 133.766 106.894C133.832 107.98 133.873 108.65 133.888 108.906C133.904 109.161 133.951 109.415 134.031 109.667C133.129 109.593 132.348 109.416 131.69 109.136C131.032 108.855 130.593 108.497 130.375 108.061C130.227 107.75 129.847 107.292 129.233 106.688C128.623 106.148 128.085 105.732 127.618 105.44C127.02 105.091 126.481 104.13 126.001 102.556C125.516 100.919 125.212 99.0779 125.088 97.0337Z" fill="black"/>
<path d="M146.557 95.7295C146.386 92.9186 146.818 88.9491 147.853 83.8209C148.884 78.6288 150.408 72.5733 152.424 65.6543C155.728 54.6176 158.888 45.417 161.903 38.0526C164.978 30.6204 168.054 24.7911 171.132 20.5647C171.906 20.6459 172.852 20.909 173.969 21.3541C175.15 21.7953 176.302 22.3023 177.427 22.8752C178.548 23.3841 179.543 23.9328 180.413 24.5211C181.346 25.1056 181.952 25.5818 182.231 25.9495C177.605 32.1294 173.613 38.7196 170.256 45.7202C166.898 52.7207 163.92 60.692 161.321 69.634C159.096 77.3351 157.465 84.2628 156.429 90.417C155.388 96.5073 154.99 101.565 155.235 105.589C155.301 106.675 155.341 107.346 155.357 107.602C155.373 107.857 155.42 108.111 155.499 108.362C154.597 108.289 153.817 108.112 153.159 107.831C152.501 107.551 152.062 107.193 151.843 106.757C151.696 106.446 151.316 105.988 150.702 105.384C150.092 104.844 149.554 104.428 149.087 104.135C148.489 103.787 147.95 102.826 147.469 101.252C146.985 99.6146 146.681 97.7737 146.557 95.7295Z" fill="black"/>
<path d="M187.258 84.4141C187.447 80.7709 188.364 77.2937 190.009 73.9824C191.722 70.6104 193.861 67.6771 196.425 65.1823C199.057 62.627 201.98 60.6315 205.194 59.1958C208.476 57.6995 211.811 57.039 215.198 57.2144C218.522 57.3865 221.035 58.3498 222.739 60.1042C224.442 61.8587 225.215 64.2698 225.056 67.3377C224.98 68.8078 224.682 70.2342 224.161 71.6172C223.708 72.9395 223.102 74.1258 222.343 75.1759C221.648 76.2294 220.834 77.0845 219.903 77.7412C218.975 78.334 218.064 78.6072 217.169 78.5609C216.402 78.5212 215.615 78.2561 214.807 77.7657C214.067 77.2147 213.46 76.5424 212.989 75.749C217.473 72.0719 219.798 68.6356 219.963 65.4398C220.059 63.5863 219.372 62.6215 217.902 62.5454C216.624 62.4792 214.995 63.0037 213.014 64.1187C211.034 65.2338 209.098 66.7357 207.206 68.6244C204.298 71.55 202.012 74.8602 200.347 78.555C198.749 82.1892 197.844 86.0516 197.632 90.1421C197.364 95.3192 198.354 98.4786 200.602 99.6204C201.567 99.5422 202.701 99.3125 204.002 98.9313C205.304 98.5501 206.707 98.046 208.214 97.4191C209.724 96.7282 211.27 95.9431 212.854 95.0639C214.501 94.1879 216.088 93.2447 217.615 92.2342C217.86 92.4392 218.069 92.7384 218.241 93.1318C218.413 93.5252 218.491 93.8817 218.474 94.2013C217.318 95.4873 216.004 96.733 214.532 97.9384C213.059 99.1439 211.528 100.25 209.938 101.257C208.351 102.201 206.804 102.986 205.298 103.613C203.852 104.307 202.581 104.722 201.484 104.857C199.385 104.556 197.438 103.782 195.645 102.536C193.847 101.353 192.292 99.831 190.978 97.9686C189.729 96.1095 188.748 94.0079 188.037 91.664C187.389 89.3234 187.129 86.9067 187.258 84.4141Z" fill="black"/>
<path d="M258.854 66.2037C259.494 66.2368 260.222 66.4027 261.04 66.7014C261.924 66.9394 262.708 67.2684 263.392 67.6883C264.078 68.0443 264.635 68.4256 265.063 68.8323C265.554 69.2422 265.792 69.607 265.775 69.9266C264.358 72.5448 263.035 75.1999 261.806 77.892C260.58 80.5201 259.52 83.0607 258.624 85.5136C257.727 87.9666 257 90.268 256.44 92.4179C255.944 94.5711 255.654 96.4467 255.571 98.0446C255.479 99.8342 255.593 101.346 255.913 102.58C256.237 103.751 256.833 104.615 257.702 105.172C256.908 105.644 255.896 106.008 254.665 106.265C253.434 106.521 252.339 106.625 251.381 106.575C247.929 106.397 246.326 103.942 246.571 99.2127C246.76 95.5696 248.232 90.6471 250.989 84.4454C249.558 87.3192 247.944 90.0234 246.147 92.5578C244.352 95.0284 242.541 97.2096 240.713 99.1016C238.885 100.994 237.043 102.532 235.187 103.718C233.398 104.843 231.762 105.495 230.279 105.675C227.921 105.425 226.061 104.207 224.701 102.022C223.343 99.7723 222.75 96.986 222.922 93.6624C223.108 90.0832 224.07 86.352 225.809 82.4687C227.548 78.5854 229.688 75.0113 232.228 71.7463C234.832 68.4846 237.598 65.808 240.526 63.7166C243.458 61.5613 246.237 60.4876 248.864 60.4955C249.493 60.7203 250.177 61.1402 250.914 61.7551C251.715 62.3734 252.447 63.0842 253.11 63.8876C253.838 64.6943 254.435 65.5263 254.904 66.3837C255.375 67.1771 255.628 67.8631 255.662 68.4416C253.086 68.6928 250.369 69.8017 247.511 71.7686C244.718 73.7388 242.125 76.168 239.732 79.0561C237.407 81.8836 235.453 84.9547 233.872 88.2694C232.29 91.584 231.424 94.7114 231.271 97.6515C231.208 98.8658 231.616 99.656 232.494 100.022C234.368 99.7344 236.59 98.2793 239.161 95.6568C241.735 92.9703 244.899 88.8083 248.651 83.1708C249.35 82.0534 250.119 80.8116 250.959 79.4452C251.863 78.0821 252.77 76.6551 253.68 75.1641C254.59 73.6732 255.469 72.1806 256.315 70.6864C257.229 69.1316 258.075 67.6373 258.854 66.2037Z" fill="black"/>
<path d="M261.255 133.693C259.811 132.754 259.106 131.374 259.142 129.554C259.228 127.809 258.436 126.216 256.765 124.774C257.903 121.673 259.111 118.552 260.388 115.413C261.665 112.274 263.186 108.726 264.951 104.771C266.792 100.765 268.983 96.1435 271.526 90.9068C274.143 85.6198 277.368 79.2464 281.201 71.7866C279.129 71.3747 277.491 71.0815 276.286 70.9071C275.081 70.7327 273.894 70.6273 272.727 70.591C272.526 70.29 272.375 69.901 272.274 69.4242C272.236 68.9598 272.254 68.5393 272.329 68.1627C273.007 68.0365 274.356 67.9785 276.377 67.9888C278.41 67.9364 280.619 67.9842 283.004 68.1322C285.459 63.6612 288.034 59.736 290.729 56.3567C293.436 52.9147 296.188 50.0688 298.985 47.819C301.781 45.5692 304.579 43.9721 307.377 43.0277C310.175 42.0833 312.86 41.8669 315.434 42.3787C316.187 42.5285 316.897 42.7348 317.562 42.9977C318.24 43.1978 318.767 43.3353 319.144 43.4102C319.796 43.0831 320.624 42.8563 321.628 42.7297C322.645 42.5403 323.498 42.5142 324.189 42.6515C324.942 42.8013 325.834 43.4028 326.864 44.456C326.187 45.235 325.417 46.3215 324.552 47.7157C323.688 49.1098 322.923 50.4913 322.26 51.8601C319.767 56.1931 317.504 58.8753 315.472 59.9068C314.781 59.7695 314.586 58.7844 314.885 56.9516C315.084 55.6209 315.152 54.2966 315.088 52.9788C314.949 52.3639 314.861 51.8243 314.822 51.36C314.847 50.9081 314.928 50.3369 315.065 49.6464C315.14 49.2698 315.259 48.8366 315.422 48.347C315.597 47.7945 315.903 46.9093 316.341 45.6913C315.274 45.4791 313.95 45.901 312.37 46.9571C310.853 48.0256 309.128 49.6404 307.198 51.8013C305.343 53.912 303.362 56.4872 301.257 59.527C299.152 62.5667 297.041 65.9642 294.923 69.7194L302.889 71.0098C303.14 71.386 303.248 72.1578 303.211 73.3252C303.25 74.4422 303.182 75.6033 303.008 76.8084L292.763 74.1838C288.967 80.8026 285.391 87.1387 282.034 93.1922C278.677 99.2457 275.639 104.841 272.921 109.977C270.203 115.114 267.823 119.698 265.782 123.729C263.791 127.835 262.282 131.157 261.255 133.693Z" fill="black"/>
<path d="M332.584 79.0682C331.559 82.91 330.2 86.131 328.509 88.731C326.83 91.2682 324.711 93.3917 322.152 95.1015C319.669 96.761 316.752 98.1386 313.402 99.2343C310.052 100.33 306.212 101.263 301.883 102.033C301.808 102.41 301.696 102.812 301.545 103.239C301.471 103.615 301.389 104.023 301.302 104.463C301.14 105.279 301.034 106.139 300.985 107.042C300.936 107.946 300.993 108.806 301.157 109.621C301.321 110.437 301.636 111.152 302.101 111.767C302.578 112.318 303.256 112.682 304.135 112.856C305.83 113.193 307.568 113.148 309.35 112.719C311.132 112.29 312.851 111.686 314.507 110.906C316.238 110.076 317.856 109.158 319.361 108.152C320.942 107.096 322.34 106.134 323.557 105.267C324.072 105.956 324.499 106.596 324.839 107.186C321.265 110.39 317.534 112.911 313.645 114.748C309.831 116.534 306.349 117.473 303.199 117.564C298.968 116.201 295.89 113.957 293.966 110.834C292.118 107.661 291.568 104.191 292.317 100.425C292.829 97.8511 293.692 95.3147 294.907 92.8156C296.197 90.2663 297.713 87.8924 299.455 85.694C301.273 83.4453 303.247 81.391 305.379 79.531C307.573 77.6836 309.806 76.1373 312.076 74.8922C314.41 73.6596 316.706 72.7785 318.964 72.2488C321.286 71.7317 323.482 71.6791 325.554 72.091C328.366 73.0418 330.71 75.3676 332.584 79.0682ZM325.469 80.8834C323.724 80.7974 321.829 81.1384 319.784 81.9063C317.739 82.6742 315.714 83.8374 313.707 85.396C311.763 86.967 309.883 88.8769 308.065 91.1256C306.248 93.3743 304.675 95.8675 303.348 98.6052C308.869 97.0929 313.655 94.8473 317.705 91.8681C321.769 88.8262 324.357 85.1646 325.469 80.8834Z" fill="black"/>
</svg>
