<?xml version="1.0" standalone="no"?>
<!DOCTYPE svg PUBLIC "-//W3C//DTD SVG 20010904//EN"
 "http://www.w3.org/TR/2001/REC-SVG-20010904/DTD/svg10.dtd">
<svg version="1.0" xmlns="http://www.w3.org/2000/svg"
 width="280.000000pt" height="280.000000pt" viewBox="0 0 280.000000 280.000000"
 preserveAspectRatio="xMidYMid meet">
<metadata>
Created by potrace 1.14, written by Peter Selinger 2001-2017
</metadata>
<g transform="translate(0.000000,280.000000) scale(0.100000,-0.100000)"
fill="#000000" stroke="none">
<path d="M365 2657 c-58 -140 -42 -278 48 -399 16 -22 21 -44 22 -110 2 -108
31 -176 104 -239 97 -83 67 -86 -154 -14 -94 31 -315 136 -334 159 -20 24 -31
19 -31 -13 0 -60 13 -74 121 -128 123 -60 246 -105 383 -138 55 -14 103 -28
106 -32 8 -9 42 -139 44 -168 1 -19 -5 -20 -79 -19 -170 2 -316 31 -444 90
-73 33 -81 32 -71 -10 11 -50 14 -52 98 -84 135 -52 267 -74 442 -74 l95 0 37
-68 36 -68 -29 -11 c-98 -37 -175 -52 -279 -56 -91 -4 -194 14 -280 49 -35 14
-67 26 -71 26 -14 0 13 -86 49 -154 55 -104 137 -187 234 -236 44 -22 90 -40
102 -40 32 0 69 -45 109 -132 93 -203 279 -410 442 -492 84 -42 91 -41 183 29
129 96 215 132 362 151 14 1 39 5 55 8 17 3 48 8 70 12 303 45 466 109 593
234 111 110 217 308 267 501 20 77 20 76 45 214 36 200 58 255 113 284 55 30
42 78 -39 145 -217 179 -453 172 -633 -19 l-52 -55 -42 25 c-66 40 -77 50 -73
72 3 12 -2 30 -9 41 -30 41 -314 191 -605 318 -152 66 -167 71 -195 60 -23 -9
-33 -23 -45 -59 -18 -56 -17 -56 -150 0 -189 81 -351 208 -449 356 -29 42 -59
77 -67 77 -8 0 -21 -15 -29 -33z m158 -208 c110 -113 249 -199 432 -270 44
-17 92 -40 106 -50 14 -10 29 -16 32 -12 4 3 5 -18 2 -47 -2 -29 -6 -54 -8
-56 -2 -2 -68 14 -148 36 -79 22 -173 47 -209 56 -62 14 -110 39 -167 87 -80
67 -97 84 -123 121 -49 72 -70 190 -46 264 7 22 9 21 36 -20 16 -24 58 -73 93
-109z m100 -448 c-3 -42 -7 -78 -9 -80 -3 -3 -26 18 -52 46 -51 51 -72 105
-72 177 l0 35 69 -51 69 -51 -5 -76z m234 -757 c19 -20 30 -25 50 -19 21 5 31
1 50 -21 12 -15 23 -30 23 -34 0 -9 -90 -78 -142 -109 -38 -23 -215 -63 -283
-64 -82 -2 -208 80 -276 180 -35 51 -36 55 -4 43 30 -12 114 -21 187 -22 92
-1 179 14 293 51 78 25 74 25 102 -5z m210 -154 c19 -17 22 -59 4 -61 -3 0
-15 -2 -26 -5 -73 -14 -117 -16 -114 -5 4 12 98 89 110 90 3 1 15 -8 26 -19z"/>
</g>
</svg>
